<svg xmlns="http://www.w3.org/2000/svg" width="24" height="24" viewBox="0 0 24 24">
    <g fill="none" fill-rule="evenodd">
        <path fill="#FAFAFA" d="M-1990-36H570v1720h-2560z"/>
        <path fill="#34343E" fill-rule="nonzero" d="M17.564 1.365l-1.497 1.497A9.965 9.965 0 0 0 12 2C6.477 2 2 6.477 2 12s4.477 10 10 10 10-4.477 10-10c0-.3-.013-.597-.04-.89l1.75-1.748c.19.849.29 1.732.29 2.638 0 6.627-5.373 12-12 12S0 18.627 0 12 5.373 0 12 0c2.008 0 3.9.493 5.564 1.365zm4.729.928l1.414 1.414L11 16.414l-5.707-5.707 1.414-1.414L11 13.586 22.293 2.293z"/>
    </g>
</svg>
