<svg xmlns="http://www.w3.org/2000/svg" width="65" height="48" viewBox="0 0 65 48">
    <g fill="none" fill-rule="evenodd">
        <path fill="#FAFAFA" d="M-64-24h2560v1720H-64z"/>
        <path fill="#00CA9D" fill-rule="nonzero" d="M32.787 3.978c3.94-.283 7.988.01 12.038.946A40.453 40.453 0 0 1 56.781 9.79c.036-.211.072-.422.104-.638a21.455 21.455 0 0 0-7.445-5.197 21.643 21.643 0 0 0-5.74-1.512 21.42 21.42 0 0 0-9.9 1.155l-.008-.014c-.338.123-.673.255-1.005.394zM27.68 7.015a21.702 21.702 0 0 0-4 4.174c-.227.339-.447.675-.66 1.005.013.391.042.77.066 1.156 2.048-1.02 5.652-2.465 10.428-3.067l2.48-.218c5.505-.303 12.271.587 19.886 4.254.15-.618.287-1.258.42-1.907l.038-.203a38.147 38.147 0 0 0-12.027-5.057 38.039 38.039 0 0 0-16.63-.137zm10.54 40.81a23.846 23.846 0 0 1-3.77-.77 23.714 23.714 0 0 1-5.682-2.485c-2.444.882-5.22 1.203-7.912.58a12.013 12.013 0 0 1-4.999-2.482c-5.366-4.454-12.122-8.128-14.653-6.541L0 34.19c4.993-3.135 15.293 5.043 17.307 6.715 2.908 2.416 6.27 2.603 9.04 1.989a24.028 24.028 0 0 1-8.51-24.275C20.814 5.704 33.646-2.355 46.497.616 59.35 3.588 67.356 16.466 64.38 29.381c-2.784 12.076-14.184 19.907-26.16 18.444zm12.214-4.258a21.762 21.762 0 0 0 3.877-2.405l-.013-.025a21.721 21.721 0 0 0 5.951-7.092 22 22 0 0 0 2.395-8.33 22.01 22.01 0 0 0-.16-4.797c-2.651 8.463-6.777 14.004-10.897 17.631l-1.8 1.46c-3.436 2.593-6.717 3.95-8.964 4.63.82.566 1.39.907 1.586 1.02a21.552 21.552 0 0 0 8.014-2.113l.011.02zm-21.375-1.58c.028-.014.057-.026.085-.039-3.274-3.37-7.072-8.32-9.408-14.83a21.755 21.755 0 0 0 9.323 14.868zm-5.751-26.165c.157 1.293.37 2.54.63 3.742 4.127-1.594 15.674-4.956 30.383-.057.34-.934.663-1.909.962-2.937-16.191-7.963-28.651-2.529-31.975-.748zm17.94 9.497c-1.296 0-2.557.056-3.766.15.085 5.602 1.956 9.32 2.839 10.762.397-.188.798-.387 1.208-.613a537.64 537.64 0 0 1-.28-10.299zm2.507 8.902c.996-.7 2.003-1.523 2.998-2.49.152-.702.612-3.182.195-6.031a40.582 40.582 0 0 0-3.423-.324c.069 3.77.165 6.938.23 8.845zm-8.546-8.525c-1.069.13-2.081.283-3.022.452-.115 4.744 2.631 9.897 3.66 11.654.701-.163 1.488-.386 2.339-.689-1.078-1.843-2.858-5.732-2.977-11.417zm-5.301.906a52.019 52.019 0 0 0-3.38.862c1.903 4.232 4.341 7.687 6.74 10.407-1.296-2.41-3.31-6.85-3.36-11.269zm22.229-2.163c.468-.877.917-1.81 1.343-2.802-14.21-4.68-25.47-1.198-28.993.177a39.262 39.262 0 0 0 1.157 3.522c3.88-1.186 15.244-4.034 26.493-.897zm-2.846 1.663c.098.947.119 1.843.094 2.65a30.577 30.577 0 0 0 1.569-2.268 35.37 35.37 0 0 0-1.663-.382zm12.061-9.689a21.892 21.892 0 0 0-2.56-4.857c-4.086 22.197-17.46 27.4-23.344 28.613a43.64 43.64 0 0 0 3.053 2.726c3.63-.736 17.85-4.975 22.851-26.482zM36.412 45.19c.573.128 1.143.226 1.713.306l-.24-.186-.02.002-.003-.02a45.458 45.458 0 0 1-5.232-4.753h-.004v-.004c-4.884-5.17-10.238-13.232-11.585-24.502-.37.94-.695 1.906-.937 2.915 2.027 15.95 14.68 25.124 16.309 26.242z"/>
    </g>
</svg>
